<?xml version="1.0" encoding="utf-8"?>
<!-- Generator: Adobe Illustrator 16.0.0, SVG Export Plug-In . SVG Version: 6.00 Build 0)  -->
<!DOCTYPE svg PUBLIC "-//W3C//DTD SVG 1.1//EN" "http://www.w3.org/Graphics/SVG/1.1/DTD/svg11.dtd">
<svg version="1.1" id="Capa_1" xmlns="http://www.w3.org/2000/svg" xmlns:xlink="http://www.w3.org/1999/xlink" x="0px" y="0px"
	 width="500px" height="500px" viewBox="0 0 500 500" enable-background="new 0 0 500 500" xml:space="preserve">
<g>
	<g>
		<path fill="#FFFFFF" d="M426.777,73.223C379.558,26.005,316.777,0,250,0S120.442,26.005,73.223,73.223
			C26.005,120.441,0,183.223,0,250s26.005,129.559,73.223,176.777C120.442,473.995,183.223,500,250,500
			s129.558-26.005,176.777-73.223C473.995,379.559,500,316.777,500,250S473.995,120.441,426.777,73.223z M202.587,34.441
			c-8.386,8.157-17.449,17.878-26.518,29.192c-15.682,19.567-28.739,40.628-38.952,62.775H67.234
			C98.448,80.398,146.565,46.754,202.587,34.441z M50.483,155.706h75.019c-8.538,25.504-13.505,52.181-14.802,79.646H29.795
			C31.661,207.022,38.89,180.139,50.483,155.706z M29.795,264.648H110.7c1.297,27.465,6.263,54.142,14.802,79.646H50.483
			C38.89,319.861,31.661,292.978,29.795,264.648z M67.234,373.591h69.883c10.213,22.146,23.271,43.208,38.952,62.775
			c9.067,11.314,18.131,21.035,26.518,29.192C146.565,453.246,98.448,419.602,67.234,373.591z M235.352,455.865
			c-10.433-8.995-23.404-21.578-36.421-37.82c-11.384-14.205-21.133-29.038-29.255-44.454h65.676V455.865z M235.352,344.294h-78.889
			c-9.522-25.22-15.007-51.819-16.429-79.646h95.317V344.294z M235.352,235.352h-95.317c1.423-27.822,6.914-54.421,16.44-79.646
			h78.877V235.352z M235.352,126.409h-65.676c7.955-15.1,17.475-29.64,28.558-43.581c13.183-16.581,26.461-29.465,37.118-38.652
			V126.409z M470.205,235.352H389.3c-1.297-27.465-6.263-54.142-14.802-79.646h75.019
			C461.11,180.139,468.34,207.022,470.205,235.352z M432.766,126.409h-69.883c-10.213-22.146-23.271-43.208-38.952-62.775
			c-9.067-11.314-18.131-21.035-26.518-29.192C353.436,46.754,401.553,80.398,432.766,126.409z M264.648,44.135
			c10.433,8.995,23.404,21.578,36.421,37.82c11.384,14.205,21.133,29.038,29.256,44.454h-65.677V44.135z M264.648,155.706h78.889
			c9.523,25.22,15.007,51.819,16.429,79.646h-95.317V155.706z M264.648,264.648h95.316c-1.423,27.822-6.914,54.421-16.44,79.646
			h-78.876V264.648z M264.648,455.823v-82.232h65.676c-7.955,15.1-17.475,29.64-28.558,43.58
			C288.584,433.752,275.307,446.635,264.648,455.823z M297.414,465.559c8.386-8.157,17.449-17.878,26.518-29.192
			c15.682-19.567,28.739-40.628,38.952-62.775h69.883C401.553,419.602,353.436,453.246,297.414,465.559z M449.517,344.294h-75.019
			c8.538-25.504,13.505-52.181,14.802-79.646h80.905C468.34,292.978,461.11,319.861,449.517,344.294z"/>
	</g>
</g>
</svg>
