<?xml version="1.0" encoding="utf-8"?>
<!-- Generator: Adobe Illustrator 16.0.0, SVG Export Plug-In . SVG Version: 6.00 Build 0)  -->
<!DOCTYPE svg PUBLIC "-//W3C//DTD SVG 1.1//EN" "http://www.w3.org/Graphics/SVG/1.1/DTD/svg11.dtd">
<svg version="1.1" id="Capa_1" xmlns="http://www.w3.org/2000/svg" xmlns:xlink="http://www.w3.org/1999/xlink" x="0px" y="0px"
	 width="500px" height="500px" viewBox="0 0 500 500" enable-background="new 0 0 500 500" xml:space="preserve">
<path id="XMLID_440_" fill="#FFFFFF" d="M249.998,0C112.149,0,0.001,112.149,0.001,250.001
	c0,137.851,112.148,250.001,249.996,250.001c35.141,0,69.131-7.153,101.029-21.258c8.636-3.818,12.54-13.914,8.721-22.552
	c-3.82-8.637-13.919-12.536-22.552-8.721c-27.511,12.167-56.85,18.337-87.198,18.337c-118.994,0-215.803-96.811-215.803-215.808
	c0-118.998,96.809-215.808,215.803-215.808c118.998,0,215.81,96.811,215.81,215.808c0,22.55-3.462,44.767-10.283,66.029
	c-14.696,45.784-38.843,59.912-50.595,58.085c-11.27-1.766-12.145-18.619-12.145-23.741V147.323c0-9.442-7.654-17.096-17.096-17.096
	c-9.442,0-17.097,7.654-17.097,17.096v10.061c-26.209-30.689-65.167-50.172-108.594-50.172c-78.733,0-142.789,64.056-142.789,142.79
	c0,78.733,64.056,142.789,142.789,142.789c43.427,0,82.385-19.482,108.594-50.172v7.756c0,31.039,16.112,53.617,41.05,57.523
	c29.512,4.609,68.326-18.755,88.438-81.418C495.99,301.834,500,276.103,500,250.001C499.998,112.149,387.85,0,249.998,0z
	 M249.998,358.598c-59.879,0-108.596-48.717-108.596-108.597c0-59.879,48.717-108.597,108.596-108.597
	c59.878,0,108.593,48.717,108.593,108.597C358.591,309.881,309.876,358.598,249.998,358.598z"/>
</svg>
