<?xml version="1.0" encoding="utf-8"?>
<!-- Generator: Adobe Illustrator 16.0.0, SVG Export Plug-In . SVG Version: 6.00 Build 0)  -->
<!DOCTYPE svg PUBLIC "-//W3C//DTD SVG 1.1//EN" "http://www.w3.org/Graphics/SVG/1.1/DTD/svg11.dtd">
<svg version="1.1" id="Layer_1" xmlns="http://www.w3.org/2000/svg" xmlns:xlink="http://www.w3.org/1999/xlink" x="0px" y="0px"
	 width="512px" height="512px" viewBox="0 0 512 512" enable-background="new 0 0 512 512" xml:space="preserve">
<path fill="#FFFFFF" d="M264,0C148.207,0,54,94.207,54,210c0,93.359,61.52,175.211,150.441,201.426l46.141,92.281
	C253.125,508.789,258.316,512,264,512c5.68,0,10.875-3.211,13.414-8.293l46.141-92.277C412.48,385.215,474,303.363,474,210
	C474,94.207,379.793,0,264,0z M309.355,384.238c-4.195,1.086-7.711,3.934-9.648,7.809L264,463.461l-35.707-71.414
	c-1.938-3.875-5.453-6.723-9.648-7.813C139.367,363.664,84,292.016,84,210c0-99.254,80.746-180,180-180s180,80.746,180,180
	C444,292.016,388.633,363.664,309.355,384.238z"/>
<path fill="#FFFFFF" d="M264,150c-33.086,0-60,26.914-60,60s26.914,60,60,60s60-26.914,60-60S297.086,150,264,150z M264,240
	c-16.543,0-30-13.457-30-30s13.457-30,30-30s30,13.457,30,30S280.543,240,264,240z"/>
</svg>
