<?xml version="1.0" encoding="utf-8"?>
<!-- Generator: Adobe Illustrator 16.0.0, SVG Export Plug-In . SVG Version: 6.00 Build 0)  -->
<!DOCTYPE svg PUBLIC "-//W3C//DTD SVG 1.1//EN" "http://www.w3.org/Graphics/SVG/1.1/DTD/svg11.dtd">
<svg version="1.1" id="Capa_1" xmlns="http://www.w3.org/2000/svg" xmlns:xlink="http://www.w3.org/1999/xlink" x="0px" y="0px"
	 width="612px" height="792px" viewBox="0 0 612 792" enable-background="new 0 0 612 792" xml:space="preserve">
<g>
	<g>
		<path fill="#FFFFFF" d="M596.255,541.391l-76.08-76.081c-20.976-20.974-55.106-20.974-76.081,0l-34.581,34.582
			c-15.891,15.891-41.748,15.886-57.632,0.006L201.988,349.877c-15.927-15.928-15.93-41.707,0-57.637
			c5.57-5.57,21.565-21.565,34.582-34.582c20.883-20.882,21.175-54.907-0.021-76.1l-76.061-75.821
			c-20.975-20.974-55.105-20.974-76.024-0.055c-15.654,15.518-20.703,20.523-27.722,27.481
			c-75.64,75.638-75.64,198.711-0.003,274.348l237.5,237.624c75.816,75.817,198.528,75.823,274.35,0l27.666-27.666
			C617.23,596.494,617.23,562.365,596.255,541.391z M109.77,131.097c6.991-6.991,18.366-6.993,25.38,0.019l76.061,75.821
			c7.008,7.008,7.008,18.351,0,25.36l-12.681,12.68L97.154,143.603L109.77,131.097z M319.604,619.779L82.103,382.153
			c-58.52-58.52-61.737-150.41-9.893-212.773L173.291,270.46c-26.56,30.108-25.453,75.988,3.331,104.773L326.51,525.246
			c0.001,0.002,0.004,0.004,0.005,0.005c28.753,28.755,74.631,29.934,104.776,3.338l101.083,101.083
			C470.209,681.426,378.526,678.702,319.604,619.779z M570.896,592.11l-12.681,12.681L456.775,503.35l12.679-12.68
			c6.992-6.992,18.368-6.993,25.36,0l76.081,76.08C577.888,573.743,577.888,585.12,570.896,592.11z"/>
	</g>
</g>
</svg>
